<svg width="64" height="64" viewBox="0 0 64 64" fill="none" xmlns="http://www.w3.org/2000/svg">
<path d="M22.727 0L19.9467 22.1866H26.049L33.0496 1.28891L22.727 0ZM35.8014 1.14063L28.758 22.1866L50.102 22.2008L54.9924 7.5709L35.8014 1.14063ZM19.8184 2.65766L9.56699 3.77547L11.5773 22.1866H17.3803L19.8184 2.65766ZM3.2793 17.9092C1.63965 17.9092 0.544648 19.1639 0.24666 20.3616C0.0983788 20.9604 0.1825 21.4452 0.350742 21.7161C0.517558 21.9727 0.748535 22.1866 1.56836 22.1866H8.99668L8.52617 17.9092H3.2793ZM54.2367 17.9092L52.8109 22.1866H59.5834C59.2127 21.4737 59.0559 20.718 59.1557 19.9624C59.2555 19.221 59.5406 18.5508 59.9113 17.9092H54.2367ZM0 24.753V59.9555C0 60.6827 0.397793 61.5382 1.0508 62.194C1.70523 62.8499 2.56641 63.2491 3.2793 63.2491L58.0293 63.2634C58.7422 63.2634 59.5977 62.8641 60.2535 62.2083C60.9094 61.5524 61.3086 60.6969 61.3086 59.9698V49.8467H48.9043C42.6309 49.8467 42.6309 38.1553 48.9043 38.1553H61.3086V24.7673L0 24.753ZM48.9043 40.7217C46.0527 40.7217 46.0527 47.2803 48.9043 47.2803H52.0838C50.8006 46.7385 49.9023 45.4696 49.9023 44.001C49.9023 42.5325 50.8006 41.2635 52.0838 40.7217H48.9043ZM54.8498 40.7217C56.133 41.2635 57.0312 42.5325 57.0312 44.001C57.0312 45.4696 56.133 46.7385 54.8498 47.2803H63.5898V40.7217H54.8498ZM53.4668 43.003C52.8965 43.003 52.4688 43.4307 52.4688 44.001C52.4688 44.5714 52.8965 44.9991 53.4668 44.9991C54.0371 44.9991 54.4648 44.5714 54.4648 44.001C54.4648 43.4307 54.0371 43.003 53.4668 43.003Z" fill="url(#paint0_linear_43_529)"/>
<defs>
<linearGradient id="paint0_linear_43_529" x1="31.7949" y1="0" x2="31.7949" y2="63.2634" gradientUnits="userSpaceOnUse">
<stop stop-color="#6600D5"/>
<stop offset="0.5" stop-color="#332FEA"/>
<stop offset="1" stop-color="#4221E3"/>
</linearGradient>
</defs>
</svg>
