<svg width="61" height="58" viewBox="0 0 61 58" fill="none" xmlns="http://www.w3.org/2000/svg">
<path d="M60.8333 49.0653C60.8333 49.6703 60.593 50.2506 60.1652 50.6784C59.7374 51.1062 59.1571 51.3465 58.5521 51.3465H43.0396C42.5315 53.2411 41.4126 54.9152 39.8562 56.1091C38.2999 57.303 36.3932 57.9502 34.4317 57.9502C32.4701 57.9502 30.5634 57.303 29.0071 56.1091C27.4508 54.9152 26.3318 53.2411 25.8237 51.3465H2.28125C1.67622 51.3465 1.09598 51.1062 0.668162 50.6784C0.240345 50.2506 0 49.6703 0 49.0653C0 48.4603 0.240345 47.88 0.668162 47.4522C1.09598 47.0244 1.67622 46.784 2.28125 46.784H25.8237C26.3318 44.8895 27.4508 43.2154 29.0071 42.0215C30.5634 40.8276 32.4701 40.1804 34.4317 40.1804C36.3932 40.1804 38.2999 40.8276 39.8562 42.0215C41.4126 43.2154 42.5315 44.8895 43.0396 46.784H58.5521C59.1571 46.784 59.7374 47.0244 60.1652 47.4522C60.593 47.88 60.8333 48.4603 60.8333 49.0653ZM60.8333 8.88487C60.8333 9.4899 60.593 10.0701 60.1652 10.498C59.7374 10.9258 59.1571 11.1661 58.5521 11.1661H51.1C50.5919 13.0607 49.473 14.7347 47.9167 15.9287C46.3603 17.1226 44.4536 17.7697 42.4921 17.7697C40.5306 17.7697 38.6238 17.1226 37.0675 15.9287C35.5112 14.7347 34.3923 13.0607 33.8842 11.1661H2.28125C1.98167 11.1661 1.68503 11.1071 1.40825 10.9925C1.13148 10.8778 0.879996 10.7098 0.668162 10.498C0.456329 10.2861 0.288293 10.0346 0.17365 9.75787C0.0590061 9.48109 0 9.18445 0 8.88487C0 8.58529 0.0590061 8.28865 0.17365 8.01187C0.288293 7.7351 0.456329 7.48362 0.668162 7.27178C0.879996 7.05995 1.13148 6.89191 1.40825 6.77727C1.68503 6.66263 1.98167 6.60362 2.28125 6.60362H33.8842C34.3923 4.70904 35.5112 3.03501 37.0675 1.84107C38.6238 0.647135 40.5306 0 42.4921 0C44.4536 0 46.3603 0.647135 47.9167 1.84107C49.473 3.03501 50.5919 4.70904 51.1 6.60362H58.5521C58.8528 6.59953 59.1513 6.65574 59.4299 6.76894C59.7085 6.88213 59.9616 7.05001 60.1743 7.26267C60.3869 7.47532 60.5548 7.72843 60.668 8.00706C60.7812 8.28568 60.8374 8.58416 60.8333 8.88487ZM60.8333 28.9599C60.8374 29.2606 60.7812 29.5591 60.668 29.8377C60.5548 30.1163 60.3869 30.3694 60.1743 30.5821C59.9616 30.7947 59.7085 30.9626 59.4299 31.0758C59.1513 31.189 58.8528 31.2452 58.5521 31.2411H22.9646C22.4565 33.1357 21.3376 34.8097 19.7812 36.0037C18.2249 37.1976 16.3182 37.8447 14.3567 37.8447C12.3951 37.8447 10.4884 37.1976 8.93209 36.0037C7.37578 34.8097 6.25684 33.1357 5.74875 31.2411H2.28125C1.67622 31.2411 1.09598 31.0008 0.668162 30.573C0.240345 30.1451 0 29.5649 0 28.9599C0 28.3548 0.240345 27.7746 0.668162 27.3468C1.09598 26.919 1.67622 26.6786 2.28125 26.6786H5.74875C6.25684 24.784 7.37578 23.11 8.93209 21.9161C10.4884 20.7221 12.3951 20.075 14.3567 20.075C16.3182 20.075 18.2249 20.7221 19.7812 21.9161C21.3376 23.11 22.4565 24.784 22.9646 26.6786H58.5521C59.1571 26.6786 59.7374 26.919 60.1652 27.3468C60.593 27.7746 60.8333 28.3548 60.8333 28.9599Z" fill="url(#paint0_linear_43_536)"/>
<defs>
<linearGradient id="paint0_linear_43_536" x1="30.4168" y1="0" x2="30.4168" y2="57.9502" gradientUnits="userSpaceOnUse">
<stop stop-color="#6600D5"/>
<stop offset="1" stop-color="#0069DE"/>
</linearGradient>
</defs>
</svg>
